<mxfile host="app.diagrams.net" modified="2023-09-26T12:56:51.618Z" agent="Mozilla/5.0 (Windows NT 10.0; Win64; x64) AppleWebKit/537.36 (KHTML, like Gecko) Chrome/116.0.0.0 Safari/537.36 OPR/102.0.0.0" etag="CDVQnIqppKdR3xCwaRdl" version="21.7.2" type="device">
  <diagram name="Страница — 1" id="iidAYOQGyTvcyagJCNtI">
    <mxGraphModel dx="1988" dy="673" grid="1" gridSize="10" guides="1" tooltips="1" connect="1" arrows="1" fold="1" page="1" pageScale="1" pageWidth="827" pageHeight="1169" math="0" shadow="0">
      <root>
        <mxCell id="0" />
        <mxCell id="1" parent="0" />
        <mxCell id="mgjqsjFDoq_tjl5bntpE-1" value="Сотрудник ОК" style="shape=umlActor;verticalLabelPosition=bottom;verticalAlign=top;html=1;outlineConnect=0;" vertex="1" parent="1">
          <mxGeometry x="20" y="220" width="30" height="60" as="geometry" />
        </mxCell>
        <mxCell id="mgjqsjFDoq_tjl5bntpE-3" value="Перевод сотрудника на новую должность" style="ellipse;whiteSpace=wrap;html=1;" vertex="1" parent="1">
          <mxGeometry x="110" y="170" width="130" height="60" as="geometry" />
        </mxCell>
        <mxCell id="mgjqsjFDoq_tjl5bntpE-4" value="Увольнение сотрудника" style="ellipse;whiteSpace=wrap;html=1;" vertex="1" parent="1">
          <mxGeometry x="110" y="290" width="130" height="60" as="geometry" />
        </mxCell>
        <mxCell id="mgjqsjFDoq_tjl5bntpE-5" value="Выбор сотрудника" style="ellipse;whiteSpace=wrap;html=1;" vertex="1" parent="1">
          <mxGeometry x="320" y="170" width="130" height="60" as="geometry" />
        </mxCell>
        <mxCell id="mgjqsjFDoq_tjl5bntpE-6" value="Подтверждение&amp;nbsp;" style="ellipse;whiteSpace=wrap;html=1;" vertex="1" parent="1">
          <mxGeometry x="530" y="170" width="130" height="60" as="geometry" />
        </mxCell>
        <mxCell id="mgjqsjFDoq_tjl5bntpE-7" value="&lt;font style=&quot;font-size: 10px;&quot;&gt;Изменение данных на &quot;Уволен&quot;&lt;/font&gt;" style="ellipse;whiteSpace=wrap;html=1;" vertex="1" parent="1">
          <mxGeometry x="740" y="290" width="130" height="60" as="geometry" />
        </mxCell>
        <mxCell id="mgjqsjFDoq_tjl5bntpE-8" value="&lt;font style=&quot;font-size: 10px;&quot;&gt;Изменение данных о должности сотрудника&lt;/font&gt;" style="ellipse;whiteSpace=wrap;html=1;" vertex="1" parent="1">
          <mxGeometry x="740" y="170" width="130" height="60" as="geometry" />
        </mxCell>
        <mxCell id="mgjqsjFDoq_tjl5bntpE-9" value="Выбор сотрудника" style="ellipse;whiteSpace=wrap;html=1;" vertex="1" parent="1">
          <mxGeometry x="320" y="290" width="130" height="60" as="geometry" />
        </mxCell>
        <mxCell id="mgjqsjFDoq_tjl5bntpE-10" value="Подтверждение&amp;nbsp;" style="ellipse;whiteSpace=wrap;html=1;" vertex="1" parent="1">
          <mxGeometry x="530" y="290" width="130" height="60" as="geometry" />
        </mxCell>
        <mxCell id="mgjqsjFDoq_tjl5bntpE-11" value="" style="endArrow=classic;html=1;rounded=0;" edge="1" parent="1" source="mgjqsjFDoq_tjl5bntpE-4" target="mgjqsjFDoq_tjl5bntpE-9">
          <mxGeometry width="50" height="50" relative="1" as="geometry">
            <mxPoint x="210" y="420" as="sourcePoint" />
            <mxPoint x="260" y="370" as="targetPoint" />
          </mxGeometry>
        </mxCell>
        <mxCell id="mgjqsjFDoq_tjl5bntpE-12" value="&lt;font style=&quot;font-size: 10px;&quot;&gt;&amp;lt;&amp;lt;include&amp;gt;&amp;gt;&lt;/font&gt;" style="edgeLabel;html=1;align=center;verticalAlign=middle;resizable=0;points=[];" vertex="1" connectable="0" parent="mgjqsjFDoq_tjl5bntpE-11">
          <mxGeometry x="-0.25" y="2" relative="1" as="geometry">
            <mxPoint x="10" y="2" as="offset" />
          </mxGeometry>
        </mxCell>
        <mxCell id="mgjqsjFDoq_tjl5bntpE-13" value="" style="endArrow=classic;html=1;rounded=0;" edge="1" parent="1" source="mgjqsjFDoq_tjl5bntpE-9" target="mgjqsjFDoq_tjl5bntpE-10">
          <mxGeometry width="50" height="50" relative="1" as="geometry">
            <mxPoint x="460" y="430" as="sourcePoint" />
            <mxPoint x="510" y="380" as="targetPoint" />
          </mxGeometry>
        </mxCell>
        <mxCell id="mgjqsjFDoq_tjl5bntpE-14" value="&amp;lt;&amp;lt;include&amp;gt;&amp;gt;" style="edgeLabel;html=1;align=center;verticalAlign=middle;resizable=0;points=[];" vertex="1" connectable="0" parent="mgjqsjFDoq_tjl5bntpE-13">
          <mxGeometry x="-0.1092" y="1" relative="1" as="geometry">
            <mxPoint as="offset" />
          </mxGeometry>
        </mxCell>
        <mxCell id="mgjqsjFDoq_tjl5bntpE-15" value="" style="endArrow=classic;html=1;rounded=0;" edge="1" parent="1" source="mgjqsjFDoq_tjl5bntpE-10" target="mgjqsjFDoq_tjl5bntpE-7">
          <mxGeometry width="50" height="50" relative="1" as="geometry">
            <mxPoint x="660" y="410" as="sourcePoint" />
            <mxPoint x="710" y="360" as="targetPoint" />
          </mxGeometry>
        </mxCell>
        <mxCell id="mgjqsjFDoq_tjl5bntpE-16" value="&amp;lt;&amp;lt;include&amp;gt;&amp;gt;" style="edgeLabel;html=1;align=center;verticalAlign=middle;resizable=0;points=[];" vertex="1" connectable="0" parent="mgjqsjFDoq_tjl5bntpE-15">
          <mxGeometry x="-0.3175" y="-1" relative="1" as="geometry">
            <mxPoint x="10" y="-1" as="offset" />
          </mxGeometry>
        </mxCell>
        <mxCell id="mgjqsjFDoq_tjl5bntpE-18" value="" style="endArrow=classic;html=1;rounded=0;" edge="1" parent="1" source="mgjqsjFDoq_tjl5bntpE-3" target="mgjqsjFDoq_tjl5bntpE-5">
          <mxGeometry width="50" height="50" relative="1" as="geometry">
            <mxPoint x="280" y="280" as="sourcePoint" />
            <mxPoint x="330" y="230" as="targetPoint" />
          </mxGeometry>
        </mxCell>
        <mxCell id="mgjqsjFDoq_tjl5bntpE-19" value="&amp;lt;&amp;lt;include&amp;gt;&amp;gt;" style="edgeLabel;html=1;align=center;verticalAlign=middle;resizable=0;points=[];" vertex="1" connectable="0" parent="mgjqsjFDoq_tjl5bntpE-18">
          <mxGeometry x="-0.0621" y="1" relative="1" as="geometry">
            <mxPoint as="offset" />
          </mxGeometry>
        </mxCell>
        <mxCell id="mgjqsjFDoq_tjl5bntpE-20" value="" style="endArrow=classic;html=1;rounded=0;" edge="1" parent="1" source="mgjqsjFDoq_tjl5bntpE-5" target="mgjqsjFDoq_tjl5bntpE-6">
          <mxGeometry width="50" height="50" relative="1" as="geometry">
            <mxPoint x="500" y="280" as="sourcePoint" />
            <mxPoint x="550" y="230" as="targetPoint" />
          </mxGeometry>
        </mxCell>
        <mxCell id="mgjqsjFDoq_tjl5bntpE-21" value="&amp;lt;&amp;lt;include&amp;gt;&amp;gt;" style="edgeLabel;html=1;align=center;verticalAlign=middle;resizable=0;points=[];" vertex="1" connectable="0" parent="mgjqsjFDoq_tjl5bntpE-20">
          <mxGeometry x="-0.2603" y="-2" relative="1" as="geometry">
            <mxPoint x="7" y="-3" as="offset" />
          </mxGeometry>
        </mxCell>
        <mxCell id="mgjqsjFDoq_tjl5bntpE-22" value="" style="endArrow=classic;html=1;rounded=0;" edge="1" parent="1" source="mgjqsjFDoq_tjl5bntpE-6" target="mgjqsjFDoq_tjl5bntpE-8">
          <mxGeometry width="50" height="50" relative="1" as="geometry">
            <mxPoint x="660" y="290" as="sourcePoint" />
            <mxPoint x="710" y="240" as="targetPoint" />
          </mxGeometry>
        </mxCell>
        <mxCell id="mgjqsjFDoq_tjl5bntpE-23" value="&amp;lt;&amp;lt;include&amp;gt;&amp;gt;" style="edgeLabel;html=1;align=center;verticalAlign=middle;resizable=0;points=[];" vertex="1" connectable="0" parent="mgjqsjFDoq_tjl5bntpE-22">
          <mxGeometry x="0.0069" y="-3" relative="1" as="geometry">
            <mxPoint x="-3" y="-2" as="offset" />
          </mxGeometry>
        </mxCell>
        <mxCell id="mgjqsjFDoq_tjl5bntpE-24" value="" style="endArrow=none;html=1;rounded=0;" edge="1" parent="1" source="mgjqsjFDoq_tjl5bntpE-1" target="mgjqsjFDoq_tjl5bntpE-4">
          <mxGeometry width="50" height="50" relative="1" as="geometry">
            <mxPoint x="-20" y="450" as="sourcePoint" />
            <mxPoint x="30" y="400" as="targetPoint" />
          </mxGeometry>
        </mxCell>
        <mxCell id="mgjqsjFDoq_tjl5bntpE-25" value="" style="endArrow=none;html=1;rounded=0;" edge="1" parent="1" source="mgjqsjFDoq_tjl5bntpE-1" target="mgjqsjFDoq_tjl5bntpE-3">
          <mxGeometry width="50" height="50" relative="1" as="geometry">
            <mxPoint x="50" y="430" as="sourcePoint" />
            <mxPoint x="100" y="380" as="targetPoint" />
          </mxGeometry>
        </mxCell>
        <mxCell id="mgjqsjFDoq_tjl5bntpE-26" value="" style="rounded=0;whiteSpace=wrap;html=1;fillColor=none;" vertex="1" parent="1">
          <mxGeometry x="90" y="100" width="800" height="280" as="geometry" />
        </mxCell>
        <mxCell id="mgjqsjFDoq_tjl5bntpE-28" value="&lt;font style=&quot;font-size: 18px;&quot;&gt;Use Case Diagram увольнение сотрудника или перевод на новую должность&lt;/font&gt;" style="text;html=1;strokeColor=none;fillColor=none;align=center;verticalAlign=middle;whiteSpace=wrap;rounded=0;" vertex="1" parent="1">
          <mxGeometry x="160" y="120" width="660" height="30" as="geometry" />
        </mxCell>
      </root>
    </mxGraphModel>
  </diagram>
</mxfile>
